<svg xmlns="http://www.w3.org/2000/svg" width="37.052" height="59.454" viewBox="0 0 37.052 59.454"><g transform="translate(-941.076 -955.653)"><path d="M34.4,15.243,13.8,0l-2.95,2.188,20.6,15.237a1.279,1.279,0,0,1,0,2.182L10.819,34.87l2.95,2.182L34.4,21.8a4.51,4.51,0,0,0,1.822-3.008A3.8,3.8,0,0,0,34.4,15.25Z" transform="translate(978.128 978.834) rotate(90)" fill="#f2f2f2"/><path d="M34.4,15.243,13.8,0l-2.95,2.188,20.6,15.237a1.279,1.279,0,0,1,0,2.182L10.819,34.87l2.95,2.182L34.4,21.8a4.51,4.51,0,0,0,1.822-3.008A3.8,3.8,0,0,0,34.4,15.25Z" transform="translate(978.128 961.834) rotate(90)" fill="#f2f2f2"/><path d="M34.4,15.243,13.8,0l-2.95,2.188,20.6,15.237a1.279,1.279,0,0,1,0,2.182L10.819,34.87l2.95,2.182L34.4,21.8a4.51,4.51,0,0,0,1.822-3.008A3.8,3.8,0,0,0,34.4,15.25Z" transform="translate(978.128 944.834) rotate(90)" fill="#f2f2f2"/></g></svg>