<svg xmlns="http://www.w3.org/2000/svg" width="38.987" height="35.595" viewBox="0 0 38.987 35.595"><path d="M38.48,33.035,28.8,24.194A13.935,13.935,0,0,0,27.118,3.8a17.387,17.387,0,0,0-22.391.511,13.919,13.919,0,0,0-.56,20.443A17.369,17.369,0,0,0,26.5,26.288l9.684,8.841a1.733,1.733,0,0,0,2.294,0,1.392,1.392,0,0,0,0-2.095ZM16.243,26.676c-7.168,0-12.979-5.305-12.979-11.849S9.075,2.978,16.243,2.978,29.222,8.283,29.222,14.827,23.408,26.669,16.243,26.676Z" transform="translate(0.032 0.032)" fill="#8c232c"/></svg>